<?xml version="1.0" encoding="UTF-8" standalone="no"?>
<!-- Created with Sodipodi ("http://www.sodipodi.com/") -->
<svg
   xmlns:dc="http://purl.org/dc/elements/1.1/"
   xmlns:cc="http://web.resource.org/cc/"
   xmlns:rdf="http://www.w3.org/1999/02/22-rdf-syntax-ns#"
   xmlns:svg="http://www.w3.org/2000/svg"
   xmlns="http://www.w3.org/2000/svg"
   xmlns:sodipodi="http://sodipodi.sourceforge.net/DTD/sodipodi-0.dtd"
   xmlns:inkscape="http://www.inkscape.org/namespaces/inkscape"
   version="1.0"
   x="0"
   y="0"
   width="560pt"
   height="490pt"
   id="svg602"
   xml:space="preserve"
   sodipodi:version="0.32"
   sodipodi:docname="Baustelle.svg"
   sodipodi:docbase="C:\Documents and Settings\Administrator\Desktop\Commons"
   inkscape:version="0.45"
   inkscape:output_extension="org.inkscape.output.svg.inkscape"
   sodipodi:modified="true"><metadata
     id="metadata2244"><rdf:RDF><cc:Work
         rdf:about=""><dc:format>image/svg+xml</dc:format><dc:type
           rdf:resource="http://purl.org/dc/dcmitype/StillImage" /></cc:Work></rdf:RDF></metadata><sodipodi:namedview
     id="base"
     inkscape:zoom="0.87046288"
     inkscape:cx="355.51579"
     inkscape:cy="289.20644"
     inkscape:window-width="1280"
     inkscape:window-height="964"
     inkscape:window-x="-4"
     inkscape:window-y="-4"
     inkscape:current-layer="svg602" /><defs
     id="defs604" /><path
     d="M 651.8229 589.4901 L 43.58339 589.943 C 19.8097 589.9607 9.80696 565.7213 23.80069 542.0037 L 316.0161 46.74347 C 332.7052 19.26017 363.6447 18.96107 380.3337 47.67127 L 675.9025 541.5504 C 692.1616 565.1324 680.3398 589.9128 651.8229 589.4901 z "
     style="font-size:12;fill:#ea0000;fill-rule:evenodd;"
     id="path634" /><path
     style="font-size:12;fill:#ffffff;fill-rule:evenodd;"
     d="M 347.28125 98.5 L 249.59375 259.09375 L 88.3125 536.03125 L 282.125 537.90625 L 612.78125 535.15625 L 516.625 372.6875 L 347.28125 98.5 z "
     id="polygon611" /><path
     d="M 590.3589 519.1232 L 344.7437 519.439 C 342.5189 519.2382 340.9074 518.7307 341.7497 516.0762 L 432.0002 400.3881 C 435.1214 395.9648 439.8303 393.5731 444.5677 393.7091 L 489.919 393.6123 C 497.2741 393.6089 500.1103 395.738 504.1575 400.8197 L 592.5329 514.9399 C 593.3417 516.9477 592.617 518.9555 590.3589 519.1232 z "
     style="font-size:12;fill-rule:evenodd;"
     id="path633" /><rect
     width="62.1417105"
     height="124.684113"
     rx="11.2045486"
     ry="11.816922"
     x="401.592033"
     y="86.9191542"
     transform="matrix(0.885449,0.464736,-0.408053,0.912958,0,0)"
     style="font-size:12;fill:#000002;fill-rule:evenodd;"
     id="rect613" /><rect
     width="100.000008"
     height="32.5"
     rx="9.4117651"
     ry="8"
     x="266.614166"
     y="268.593887"
     style="font-size:12;fill-rule:evenodd;"
     id="rect615" /><rect
     width="93.1918213"
     height="27.6430168"
     rx="8.77099663"
     ry="6.80443525"
     x="-111.084468"
     y="374.948372"
     transform="matrix(0.46869,-0.883363,0.744635,0.667472,0,0)"
     style="font-size:12;fill-rule:evenodd;"
     id="rect616" /><rect
     width="292.533896"
     height="15.5059239"
     rx="27.5326014"
     ry="3.81684275"
     x="361.496547"
     y="184.7349"
     transform="matrix(0.884585,0.466378,-0.436681,0.899616,0,0)"
     style="font-size:12;fill-rule:evenodd;"
     id="rect617" /><rect
     width="134.95171"
     height="27.030939"
     rx="12.701341"
     ry="6.6537695"
     x="-440.25488"
     y="335.38721"
     transform="matrix(-5.7205843e-2,-0.9983624,0.9970356,-7.6942196e-2,0,0)"
     style="font-size:12px;fill-rule:evenodd"
     id="rect618" /><ellipse
     cx="418.75"
     cy="467.362183"
     rx="31.25"
     ry="32.5"
     transform="matrix(0.957573,0,0,0.972804,-15.17769,-201.0577)"
     style="font-size:12;fill-rule:evenodd;stroke-width:1;"
     id="path619" /><rect
     width="78.0662926"
     height="31.2361202"
     rx="7.34741553"
     ry="7.6888919"
     x="-504.121404"
     y="192.695264"
     transform="matrix(-0.234008,-0.972235,0.985645,-0.16883,0,0)"
     style="font-size:12;fill-rule:evenodd;"
     id="rect621" /><rect
     width="78.2401745"
     height="31.2458291"
     rx="7.36378059"
     ry="7.69128233"
     x="-494.049012"
     y="303.844892"
     transform="matrix(-7.569861e-3,-0.999971,0.997034,7.696708e-2,0,0)"
     style="font-size:12;fill-rule:evenodd;"
     id="rect622" /><rect
     width="156.705855"
     height="31.9531957"
     rx="14.7487878"
     ry="7.86540322"
     x="-296.654358"
     y="424.44891"
     transform="matrix(0.494708,-0.869059,0.817867,0.575407,0,0)"
     style="font-size:12;fill-rule:evenodd;"
     id="rect623" /></svg>